HIERARCHY
ROOT Hips
{
	OFFSET 0.00000 0.00000 0.00000
	CHANNELS 6 Xposition Yposition Zposition Zrotation Yrotation Xrotation 
	JOINT LHipJoint
	{
		OFFSET 0 0 0
		CHANNELS 3 Zrotation Yrotation Xrotation
		JOINT LeftHip
		{
			OFFSET 1.36306 -1.79463 0.83929
			CHANNELS 3 Zrotation Yrotation Xrotation
			JOINT LeftKnee
			{
				OFFSET 2.44811 -6.72613 0.00000
				CHANNELS 3 Zrotation Yrotation Xrotation
				JOINT LeftAnkle
				{
					OFFSET 2.56220 -7.03959 0.00000
					CHANNELS 3 Zrotation Yrotation Xrotation
					JOINT LeftToe
					{
						OFFSET 0.15764 -0.43311 2.32255
						CHANNELS 3 Zrotation Yrotation Xrotation
						End Site
						{
							OFFSET 0.00000 -0.00000 1.18966
						}
					}
				}
			}
		}
	}
	JOINT RHipJoint
	{
		OFFSET 0 0 0
		CHANNELS 3 Zrotation Yrotation Xrotation
		JOINT RightHip
		{
			OFFSET -1.30552 -1.79463 0.83929
			CHANNELS 3 Zrotation Yrotation Xrotation
			JOINT RightKnee
			{
				OFFSET -2.54253 -6.98555 0.00000
				CHANNELS 3 Zrotation Yrotation Xrotation
				JOINT RightAnkle
				{
					OFFSET -2.56826 -7.05623 0.00000
					CHANNELS 3 Zrotation Yrotation Xrotation
					JOINT RightToe
					{
						OFFSET -0.16473 -0.45259 2.36315
						CHANNELS 3 Zrotation Yrotation Xrotation
						End Site
						{
							OFFSET -0.00000 -0.00000 1.21082
						}
					}
				}
			}
		}
	}
	JOINT lowerback
	{
		OFFSET 0 0 0
		CHANNELS 3 Zrotation Yrotation Xrotation
		JOINT Chest
		{
			OFFSET 0.02827 2.03559 -0.19338
			CHANNELS 3 Zrotation Yrotation Xrotation
			JOINT Chest2
			{
				OFFSET 0.05672 2.04885 -0.04275
				CHANNELS 3 Zrotation Yrotation Xrotation
				JOINT lowerneck
				{
					OFFSET 0 0 0
					CHANNELS 3 Zrotation Yrotation Xrotation
					JOINT Neck
					{
						OFFSET -0.05417 1.74624 0.17202
						CHANNELS 3 Zrotation Yrotation Xrotation
						JOINT Head
						{
							OFFSET 0.10407 1.76136 -0.12397
							CHANNELS 3 Zrotation Yrotation Xrotation
							End Site
							{
								OFFSET 0.03720 1.77044 -0.06241
							}
						}
					}
				}
				JOINT LeftCollar
				{
					OFFSET 0 0 0
					CHANNELS 3 Zrotation Yrotation Xrotation
					JOINT LeftShoulder
					{
						OFFSET 3.36241 1.20089 -0.31121
CHANNELS 3 Zrotation Xrotation Yrotation
						JOINT LeftElbow
						{
OFFSET 0 -4.983000 -0.000000
CHANNELS 3 Zrotation Xrotation Yrotation
							JOINT LeftWrist
							{
OFFSET 0 -3.483560 -0.000000
CHANNELS 3 Zrotation Xrotation Yrotation
								JOINT lhand
								{
									OFFSET 0 0 0
CHANNELS 3 Zrotation Xrotation Yrotation
									JOINT LFingers
									{
OFFSET 0 -0.715260 -0.000000
CHANNELS 3 Zrotation Xrotation Yrotation
										End Site
										{
OFFSET 0 -0.576660 -0.000000
										}
									}
								}
								JOINT LThumb
								{
OFFSET 0 0.000000 0.000000
CHANNELS 3 Zrotation Xrotation Yrotation
									End Site
									{
OFFSET 0 -0.585470 0.585470
									}
								}
							}
						}
					}
				}
				JOINT RightCollar
				{
					OFFSET 0 0 0
					CHANNELS 3 Zrotation Yrotation Xrotation
					JOINT RightShoulder
					{
						OFFSET -3.13660 1.37405 -0.40465
CHANNELS 3 Zrotation Xrotation Yrotation
						JOINT RightElbow
						{
OFFSET 0 -5.241900 -0.000000
CHANNELS 3 Zrotation Xrotation Yrotation
							JOINT RightWrist
							{
OFFSET 0 -3.444170 -0.000000
CHANNELS 3 Zrotation Xrotation Yrotation
								JOINT rhand
								{
									OFFSET 0 0 0
CHANNELS 3 Zrotation Xrotation Yrotation
									JOINT RFingers
									{
OFFSET 0 -0.622530 -0.000000
CHANNELS 3 Zrotation Xrotation Yrotation
										End Site
										{
OFFSET 0 -0.501900 -0.000000
										}
									}
								}
								JOINT RThumb
								{
OFFSET 0 0.000000 0.000000
CHANNELS 3 Zrotation Xrotation Yrotation
									End Site
									{
OFFSET 0 -0.509560 0.509560
									}
								}
							}
						}
					}
				}
			}
		}
	}
}
MOTION
Frames: 8
Frame Time: .0083333
8.9600 17.9938 21.6712 -183.5880 -180.2120 180.3020 0.0000 0.0000 0.0000 -12.5098 -0.9960 -3.7151 1.4064 7.5013 21.2092 0.7106 -2.6139 -15.2515 0.0194 -0.8988 -2.4703 0.0000 0.0000 0.0000 24.0067 2.9110 -4.5320 -1.8955 -8.6449 24.6907 -0.6359 -4.5631 -17.4121 -0.3805 -3.9616 10.9687 3.2825 0.4153 10.5560 3.8541 1.2532 -1.1209 2.0135 0.5661 -7.1454 -4.4491 -2.5463 -10.6690 1.2547 -2.8850 10.7350 0.8966 -1.5113 5.0608 -0.0000 0.0000 0.0000 2.8718 12.3335 -29.0822 43.6215 -50.075 21.1762 32.2052 -22.9295 13.1797 0.0 0.0 0.0 -7.1250 0.0 0.0 3.3101 14.5284 2.3779 -0.0000 0.0000 0.0000 -7.2562 4.2328 21.2288 -37.7522 -46.6803 -16.7851 -22.9492 -11.8152 12.531 0.0 0.0 0.0 7.1250 0.0 -0.0 3.9479 43.5145 0.145
8.9628 17.9962 21.6982 -183.2560 -180.0830 180.5480 0.0000 0.0000 0.0000 -12.8943 -1.0017 -3.7644 1.3888 7.4561 21.0739 0.7274 -2.6123 -15.4376 0.0112 -0.6819 -1.8739 0.0000 0.0000 0.0000 23.6170 3.1351 -4.6886 -1.9109 -8.6781 24.7933 -0.6488 -4.5434 -17.5432 -0.3634 -3.8726 10.7187 2.8215 0.4617 10.4800 3.8024 1.2461 -1.0946 2.2193 0.5802 -7.0812 -4.4791 -2.5347 -10.7964 1.3494 -2.8705 10.7714 0.9305 -1.4988 5.0947 -0.0000 -0.0000 0.0000 2.8813 12.5085 -28.9782 43.7939 -50.1638 21.3085 32.0443 -22.9045 13.3262 0.0 0.0 0.0 -7.1250 0.0 0.0 3.1841 14.3838 2.297 -0.0000 -0.0000 0.0000 -7.448 4.2686 21.5538 -38.0282 -46.8573 -16.9862 -22.0846 -11.6968 12.7554 0.0 0.0 0.0 7.1250 0.0 -0.0 4.7692 43.6571 0.1585
8.9698 17.9947 21.7206 -183.2230 -180.0020 180.7070 0.0000 0.0000 0.0000 -12.9573 -0.9907 -3.8027 1.3782 7.4288 20.9922 0.7300 -2.5927 -15.4697 0.0110 -0.6764 -1.8589 0.0000 0.0000 0.0000 23.5300 3.0734 -4.8492 -1.9200 -8.6974 24.8532 -0.6512 -4.5360 -17.5641 -0.2865 -3.4426 9.5134 2.7550 0.5117 10.5897 3.7933 1.3076 -1.0568 2.2364 0.6125 -7.1057 -4.5863 -2.5516 -11.0496 1.5935 -2.8957 10.9522 1.0184 -1.4993 5.1992 -0.0000 -0.0000 0.0000 2.954 12.6711 -29.0688 43.9865 -50.2622 21.4565 32.0865 -23.0978 13.5327 0.0 0.0 0.0 -7.1250 0.0 0.0 3.1884 14.1387 2.3166 -0.0000 -0.0000 0.0000 -7.5289 4.2721 21.6249 -38.3187 -47.0417 -17.1985 -21.9308 -11.6335 12.6092 0.0 0.0 0.0 7.1250 0.0 -0.0 4.8840 43.4842 0.1832
8.9790 17.9931 21.7401 -183.3610 -180.0040 180.8390 0.0000 0.0000 0.0000 -12.8146 -0.9193 -3.9395 1.3868 7.4511 21.0590 0.7349 -2.7548 -15.4953 0.0129 -0.7329 -2.0141 0.0000 0.0000 0.0000 23.6342 2.9315 -4.9740 -1.9166 -8.6901 24.8306 -0.6496 -4.4463 -17.4880 -0.2744 -3.3695 9.3093 2.8998 0.5486 10.7484 3.8545 1.3893 -1.0653 2.2059 0.6475 -7.2058 -4.7934 -2.5860 -11.0175 1.8096 -2.9386 11.0457 1.1160 -1.5150 5.2307 -0.0000 0.0000 0.0000 3.0108 13.016 -29.3503 44.3654 -50.4538 21.7483 32.4757 -23.2841 13.4247 0.0 0.0 0.0 -7.1250 0.0 0.0 3.4636 14.2024 2.5127 -0.0000 0.0000 0.0000 -7.6854 4.5074 21.7129 -38.8260 -47.3587 -17.5707 -21.9129 -11.6855 12.4904 0.0 0.0 0.0 7.1250 0.0 -0.0 4.8802 43.3558 0.1985
8.9872 17.9939 21.7616 -183.4180 -180.0340 181.0450 0.0000 0.0000 0.0000 -12.7622 -0.9137 -4.1876 1.4146 7.5221 21.2718 0.7580 -2.9322 -15.7163 0.0085 -0.5955 -1.6365 0.0000 0.0000 0.0000 23.6474 2.9169 -5.0776 -1.9029 -8.6607 24.7397 -0.6574 -4.2330 -17.4358 -0.3345 -3.7167 10.2811 2.9407 0.5151 10.7359 3.9034 1.3513 -1.0378 2.2409 0.6286 -7.1692 -4.8794 -2.5513 -10.8900 1.8834 -2.8926 10.8749 1.1586 -1.4905 5.1570 0.0000 -0.0000 0.0000 3.0551 13.3561 -29.5245 44.8613 -50.7003 22.1313 32.9089 -23.5057 13.1364 0.0 0.0 0.0 -7.1250 0.0 0.0 3.7909 14.4687 2.7296 0.0000 -0.0000 0.0000 -7.9287 4.7931 22.2386 -39.5132 -47.7788 -18.0779 -22.6104 -11.9394 12.1979 0.0 0.0 0.0 7.1250 0.0 -0.0 4.2027 43.1201 0.1953
8.9959 17.9931 21.7833 -183.8060 -180.0450 181.2840 0.0000 0.0000 0.0000 -12.3438 -0.9878 -4.4441 1.4442 7.5971 21.4968 0.7838 -3.0959 -15.9661 0.0040 -0.4109 -1.1290 0.0000 0.0000 0.0000 24.0132 2.9027 -5.2269 -1.8917 -8.6367 24.6654 -0.6749 -3.9222 -17.4344 -0.3871 -3.9954 11.0638 3.3464 0.4479 10.7157 3.9867 1.3166 -0.9876 2.1062 0.5980 -7.0973 -4.7823 -2.5304 -10.8353 1.8599 -2.8778 10.5976 1.1382 -1.4790 5.0592 0.0000 0.0000 0.0000 3.1691 13.587 -29.6249 45.2732 -50.9016 22.4506 32.7694 -23.6559 13.1054 0.0 0.0 0.0 -7.1250 0.0 0.0 3.7005 14.5267 2.6596 0.0000 0.0000 0.0000 -8.0827 5.1795 22.9003 -40.3584 -48.2808 -18.7063 -23.932 -12.3174 11.502 0.0 0.0 0.0 7.1250 0.0 -0.0 2.9115 42.5125 0.1789
9.0053 17.9893 21.8000 -184.1490 -180.0440 181.4330 0.0000 0.0000 0.0000 -11.9850 -1.0550 -4.6229 1.4686 7.6583 21.6808 0.7991 -3.2636 -16.1022 0.0025 -0.3228 -0.8869 0.0000 0.0000 0.0000 24.3297 2.7964 -5.3773 -1.8898 -8.6326 24.6527 -0.6875 -3.7189 -17.4495 -0.3772 -3.9445 10.9205 3.7101 0.3953 10.8560 4.0564 1.3082 -0.9867 1.9769 0.5804 -7.1713 -4.7509 -2.5287 -10.6676 1.8795 -2.8904 10.4523 1.1406 -1.4825 4.9862 -0.0000 -0.0000 0.0000 3.2337 13.9139 -29.6735 45.5602 -51.04 22.6735 32.605 -23.6939 13.1426 0.0 0.0 0.0 -7.1250 0.0 0.0 3.5848 14.5093 2.5775 -0.0000 -0.0000 0.0000 -8.1171 5.5094 23.2678 -40.9481 -48.6217 -19.1476 -23.998 -12.5744 11.1375 0.0 0.0 0.0 7.1250 0.0 -0.0 2.8051 42.1244 0.1992
9.0149 17.9866 21.8166 -184.1050 -180.0810 181.5140 0.0000 0.0000 0.0000 -12.0709 -1.1292 -4.7318 1.4917 7.7156 21.8535 0.8128 -3.3507 -16.2321 0.0009 -0.1971 -0.5415 0.0000 0.0000 0.0000 24.2250 2.6735 -5.4863 -1.8938 -8.6413 24.6795 -0.6922 -3.6392 -17.4537 -0.3400 -3.7472 10.3665 3.6222 0.3433 11.0348 4.0794 1.2389 -0.9550 2.0621 0.5500 -7.2410 -4.7695 -2.4705 -10.5104 1.9229 -2.8214 10.3103 1.1645 -1.4465 4.9145 0.0000 0.0000 0.0000 3.1663 14.2069 -29.6038 45.8372 -51.1721 22.8891 33.2072 -23.8675 12.9903 0.0 0.0 0.0 -7.1250 0.0 0.0 4.0104 14.5921 2.8779 0.0000 0.0000 0.0000 -8.1745 5.5833 23.5364 -41.3499 -48.8496 -19.4497 -21.6302 -12.4795 12.5211 0.0 0.0 0.0 7.1250 0.0 -0.0 5.1410 43.3573 0.209
